<svg width="181" height="174" viewBox="0 0 181 174" fill="none" xmlns="http://www.w3.org/2000/svg">
<path d="M159.038 129.212C159.04 129.786 158.918 130.353 158.68 130.879C157.292 141.672 141.891 150.297 116.848 154.154C108.558 155.444 99.5969 156.022 90.9017 156.022C82.3115 156.022 73.6974 155.488 65.4996 154.232C38.8952 150.242 23.0088 140.916 23.0088 129.29C23.0088 129.212 23.0318 129.135 23.0437 129.045C23.1011 111.25 32.1893 97.7008 44.8152 89.498C46.8386 70.2133 55.626 17.6948 91.006 17.6948C91.0177 17.6948 91.0291 17.7061 91.0291 17.7061C91.0409 17.7061 91.0523 17.6948 91.064 17.6948C126.387 17.6948 135.197 70.0243 137.244 89.3979C151.107 98.3793 159.038 112.884 159.038 129.212Z" fill="#211951"/>
<path d="M34.9639 113.684C48.0178 106.371 69.8589 102.525 90.9016 102.525C112.176 102.525 134.26 106.46 147.267 113.929C144.319 106.893 139.29 100.869 132.341 96.3782C132.156 96.2451 132.04 96.067 131.878 95.9116C130.19 95.4445 128.895 94.0439 128.733 92.2655C125.774 60.2877 114.327 26.1202 91.0638 26.1202C91.052 26.1202 91.0406 26.1089 91.0289 26.1089C91.0289 26.1089 91.0176 26.1202 91.0057 26.1202C69.5923 26.1202 58.2038 55.0857 54.2263 84.6408C60.7937 82.0179 67.8466 80.5951 74.8534 80.5951C77.2699 80.5951 79.2241 82.473 79.2241 84.7962C79.2241 87.1192 77.2701 89.0091 74.8534 89.0091C58.5048 89.0091 41.7629 98.0013 34.9639 113.684Z" fill="#F0F3FF"/>
<path d="M101.955 136.737C101.955 130.88 96.9949 126.111 90.8904 126.111C84.7972 126.111 79.8369 130.88 79.8369 136.737C79.8369 142.606 84.7972 147.374 90.8904 147.374C96.9951 147.374 101.955 142.606 101.955 136.737Z" fill="#836FFF"/>
<path d="M150.054 129.29C150.054 121.632 127.553 110.939 90.9013 110.939C54.4576 110.939 32.0266 121.509 31.7839 129.157V129.212C31.7839 129.245 31.7607 129.268 31.7607 129.301C31.7725 134.947 43.8201 142.461 66.8518 145.918C69.1186 146.262 71.5231 146.529 73.9746 146.774C72.0897 143.851 70.9566 140.427 70.9566 136.737C70.9566 126.167 79.8945 117.575 90.8899 117.575C101.885 117.575 110.834 126.167 110.834 136.737C110.834 140.427 109.69 143.851 107.805 146.774C110.349 146.518 112.835 146.24 115.171 145.885C137.879 142.394 150.054 134.87 150.054 129.29Z" fill="#15F5BA"/>
<path d="M89.4214 40.8476C82.5999 40.8476 74.8071 53.8969 74.4601 63.0888C74.3791 65.4118 72.3445 67.2238 69.9279 67.1458C67.5114 67.0571 65.6265 65.1118 65.7076 62.7888C66.17 50.562 76.3219 32.4336 89.4214 32.4336C91.8378 32.4336 93.8038 34.3122 93.8038 36.6352C93.8038 38.9582 91.8378 40.8476 89.4214 40.8476Z" fill="#211951"/>
</svg>
