<svg width="150" height="150" viewBox="0 0 150 150" fill="none" xmlns="http://www.w3.org/2000/svg">
<g clip-path="url(#clip0_15_89)">
<path d="M75 150C116.421 150 150 116.421 150 75C150 33.5786 116.421 0 75 0C33.5786 0 0 33.5786 0 75C0 116.421 33.5786 150 75 150Z" fill="#F0F3FF"/>
<path d="M74.4096 122.244H75.5907C94.134 122.244 109.606 107.362 109.252 88.8189C109.252 86.4567 108.898 84.2126 108.425 82.0866C106.299 72.7559 95.6694 62.0078 87.9922 50.433C79.9607 39.3307 75.0001 27.5197 75.0001 27.874C74.882 27.6378 69.9214 39.4488 62.008 50.433C54.4489 62.0078 43.7009 72.874 41.5749 81.9685C40.9844 84.0945 40.7482 86.3386 40.7482 88.7008C40.3938 107.244 55.8663 122.244 74.4096 122.244Z" fill="#836FFF"/>
<path d="M52.3224 104.409C54.0941 104.291 55.1571 102.638 54.4484 101.221C53.5036 99.0945 52.6768 96.8504 52.3224 94.4882C51.85 92.126 51.7319 89.8819 51.85 87.6378C52.2043 78.189 61.2988 65.4331 67.0862 52.6772C67.6768 51.6142 68.1492 50.4331 68.6217 49.3701C68.3854 49.7244 68.1492 50.0788 67.913 50.315C60.1177 62.2441 49.0154 73.5827 47.0075 82.7953C46.535 84.9213 46.2988 87.2835 46.2988 89.6457C46.4169 94.6063 47.7161 99.0945 49.9602 103.228C50.5508 104.055 51.3776 104.528 52.3224 104.409Z" fill="#15F5BA"/>
<path d="M58.3416 107.956C58.2841 106.588 57.0223 105.529 55.5233 105.592C54.0244 105.655 52.8559 106.816 52.9134 108.185C52.9709 109.553 54.2327 110.612 55.7317 110.549C57.2306 110.485 58.3991 109.325 58.3416 107.956Z" fill="#15F5BA"/>
</g>
<defs>
<clipPath id="clip0_15_89">
<rect width="150" height="150" fill="white"/>
</clipPath>
</defs>
</svg>
