<svg width="117" height="118" viewBox="0 0 117 118" fill="none" xmlns="http://www.w3.org/2000/svg">
<g clip-path="url(#clip0_4_280)">
<path d="M58.5042 118C90.8152 118 117.008 91.5848 117.008 59C117.008 26.4152 90.8152 0 58.5042 0C26.1932 0 0 26.4152 0 59C0 91.5848 26.1932 118 58.5042 118Z" fill="#F0F3FF"/>
<path d="M87.2082 74.8561C87.5738 74.1186 88.3051 73.7498 89.0364 73.5654C89.7678 73.3811 90.6819 73.3811 91.596 73.7498L96.1666 75.9623C97.0808 76.3311 97.6293 77.0686 97.8121 77.9904C98.1777 78.9123 97.9949 80.0186 97.4464 80.9404C96.8979 81.8623 95.9838 82.5998 95.2525 82.7842C94.3384 82.9686 93.4243 82.7842 92.693 82.2311L88.488 79.2811C87.7567 78.7279 87.2082 77.9904 87.0254 77.2529C86.8425 76.3311 86.8425 75.5936 87.2082 74.8561Z" fill="#211951"/>
<path d="M29.9837 75.2251C30.8978 76.5158 30.1665 78.5439 28.7039 79.6502L24.4989 82.6001C22.8535 83.7064 20.8424 83.1533 19.5626 81.3095C18.4657 79.4658 19.197 77.0689 20.8424 76.3314L25.413 74.1189C27.4241 73.3814 29.2524 73.9345 29.9837 75.2251Z" fill="#211951"/>
<path d="M25.5958 58.6312C25.5958 60.2906 24.316 61.5812 22.3049 61.7656L17.1858 62.3187C15.3576 62.5031 13.5293 60.8437 13.5293 58.6312C13.5293 56.4187 15.1747 54.7593 17.003 54.9437L22.1221 55.3124C24.1332 55.6812 25.5958 56.9718 25.5958 58.6312Z" fill="#211951"/>
<path d="M29.801 41.8532C29.4353 42.5907 28.704 42.9595 27.9727 43.1438C27.2414 43.3282 26.3273 43.3282 25.4131 42.9595L20.8425 40.747C19.9284 40.3782 19.3799 39.6407 19.1971 38.7188C18.8314 37.797 19.0142 36.6907 19.5627 35.7688C20.1112 34.847 21.0253 34.1095 21.7566 33.9251C22.6708 33.7407 23.5849 33.9251 24.3162 34.4782L28.5212 37.4282C29.2525 37.9813 29.801 38.7188 29.9838 39.4563C30.3494 40.3782 30.3494 41.3001 29.801 41.8532Z" fill="#211951"/>
<path d="M41.8671 29.6843C40.5873 30.6062 38.5762 29.8687 37.4793 28.3937L34.554 24.1531C33.4571 22.4937 34.0056 20.4656 35.8338 19.1749C37.6621 18.0687 40.0388 18.8062 40.7701 20.4656L42.964 25.0749C43.6953 26.9187 43.1468 28.7624 41.8671 29.6843Z" fill="#211951"/>
<path d="M58.3218 25.075C56.6763 25.075 55.3965 23.7844 55.2137 21.7562L54.6652 16.5937C54.4824 14.75 56.1278 12.9062 58.3218 12.9062C60.5157 12.9062 62.1611 14.5656 61.9783 16.4094L61.6126 21.5719C61.247 23.6 59.9672 25.075 58.3218 25.075Z" fill="#211951"/>
<path d="M74.9585 29.4999C74.2272 29.1311 73.8615 28.3936 73.6787 27.6561C73.4959 26.9186 73.4959 25.9967 73.8615 25.0749L76.0554 20.4655C76.4211 19.5436 77.1524 18.9905 78.0665 18.8061C78.9806 18.4374 80.0776 18.6217 80.9917 19.1749C81.9058 19.728 82.6371 20.6499 82.82 21.3874C83.0028 22.3092 82.82 23.2311 82.2715 23.9686L79.3463 28.2092C78.7978 28.9467 78.0665 29.4999 77.3352 29.6842C76.4211 29.8686 75.5069 29.8686 74.9585 29.4999Z" fill="#211951"/>
<path d="M87.0252 41.4846C86.1111 40.194 86.8424 38.1658 88.305 37.0596L92.51 34.1096C94.1554 33.0033 96.1665 33.5565 97.4463 35.4002C98.5433 37.244 97.812 39.6408 96.1665 40.3783L91.4131 42.5908C89.7676 43.5127 87.7565 42.9596 87.0252 41.4846Z" fill="#211951"/>
<path d="M91.5957 58.078C91.5957 56.4186 92.8755 55.128 94.8866 54.9436L100.006 54.3905C101.834 54.2061 103.662 55.8655 103.662 58.078C103.662 60.2905 102.017 61.9498 100.189 61.7655L95.0694 61.3967C93.0583 61.2123 91.5957 59.7373 91.5957 58.078Z" fill="#211951"/>
<g opacity="0.2">
<path d="M76.0558 44.9877C75.3245 44.2502 74.0447 44.0659 73.3134 44.619L64.7206 49.9659L59.053 53.469C58.8702 53.469 58.6874 53.469 58.5046 53.469C53.3854 53.469 49.3633 57.5252 49.3633 62.6877C49.3633 62.8721 49.3633 63.0565 49.3633 63.2409C49.7289 67.8502 53.2026 71.5377 57.7733 71.7221C57.9561 71.7221 58.1389 71.7221 58.3217 71.7221C63.4409 71.7221 67.463 67.6659 67.463 62.5034C67.463 62.319 67.463 62.1346 67.463 61.9502L70.9367 56.2346L76.2386 47.569C76.97 46.8315 76.7871 45.7252 76.0558 44.9877Z" fill="#231F20"/>
</g>
<path d="M76.0558 41.3002C75.3245 40.5627 74.0447 40.3784 73.3134 40.9315L64.7206 46.2784L59.053 49.7815C58.8702 49.7815 58.6874 49.7815 58.5046 49.7815C53.3854 49.7815 49.3633 53.8377 49.3633 59.0002C49.3633 59.1846 49.3633 59.369 49.3633 59.5534C49.7289 64.1627 53.2026 67.8502 57.7733 68.0346C57.9561 68.0346 58.1389 68.0346 58.3217 68.0346C63.4409 68.0346 67.463 63.9784 67.463 58.8159C67.463 58.6315 67.463 58.4471 67.463 58.2627L70.9367 52.5471L76.2386 43.8815C76.97 43.144 76.7871 42.0377 76.0558 41.3002Z" fill="#15F5BA"/>
<path d="M58.5046 68.2188C63.5532 68.2188 67.6458 64.0914 67.6458 59C67.6458 53.9086 63.5532 49.7812 58.5046 49.7812C53.456 49.7812 49.3633 53.9086 49.3633 59C49.3633 64.0914 53.456 68.2188 58.5046 68.2188Z" fill="#211951"/>
<path d="M73.13 90.3438C73.13 93.4781 70.7533 95.875 67.6453 95.875H49.3627C46.2547 95.875 43.8779 93.4781 43.8779 90.3438V86.6562C43.8779 83.5219 46.2547 81.125 49.3627 81.125H67.6453C70.7533 81.125 73.13 83.5219 73.13 86.6562V90.3438Z" fill="#836FFF"/>
</g>
<defs>
<clipPath id="clip0_4_280">
<rect width="117.008" height="118" fill="white"/>
</clipPath>
</defs>
</svg>
