<svg width="153" height="153" viewBox="0 0 153 153" fill="none" xmlns="http://www.w3.org/2000/svg">
<path d="M32.4452 28.6882V11.155C32.4452 6.77386 28.5678 3.18762 23.8281 3.18762C19.0892 3.18762 15.2119 6.77386 15.2119 11.155V28.6879H16.9339H30.7222L32.4452 28.6882Z" fill="#F0F3FF"/>
<path d="M30.7228 28.6881H16.9346V115.103C17.3343 96.778 22.4163 79.9342 30.7225 66.4206C30.7206 66.4179 30.7219 66.4167 30.7225 66.4149L30.7228 28.6881Z" fill="#836FFF"/>
<path d="M82.6137 34.2664C61.518 34.2664 42.744 46.8506 30.722 66.4146V66.4203C22.4158 79.934 17.3341 96.7774 16.9341 115.103C16.9179 115.881 16.9092 116.659 16.9092 117.441C16.9092 128.923 18.7478 139.863 22.0716 149.813H143.156C146.48 139.863 148.318 128.923 148.318 117.441C148.318 71.5046 118.902 34.2664 82.6137 34.2664ZM61.9332 72.9142H103.295V98.4144H61.9332V72.9142Z" fill="#F0F3FF"/>
<path d="M103.293 72.9154H61.9326V98.4157H103.293V72.9154Z" fill="#15F5BA"/>
<path d="M131.858 56.7473C118.782 40.1949 101.293 31.0791 82.6145 31.0791C64.3117 31.0791 47.1553 39.836 34.17 55.7602V31.4454C35.1992 30.8941 35.8933 29.8673 35.8933 28.6882V11.155C35.8927 5.00448 30.4811 0 23.8287 0C17.1769 0 11.7656 5.00448 11.7656 11.155V28.6879C11.7656 29.8664 12.4594 30.8932 13.4876 31.4445V115.103C13.4876 115.107 13.4883 115.112 13.4883 115.116C13.4721 115.889 13.4627 116.664 13.4627 117.44C13.4627 128.987 15.251 140.195 18.779 150.753C19.2249 152.089 20.5608 153 22.0724 153H143.157C144.669 153 146.004 152.089 146.45 150.753C149.978 140.196 151.766 128.988 151.766 117.44C151.765 94.5533 144.696 72.9982 131.858 56.7473ZM18.6594 11.155C18.6594 8.51931 20.9789 6.37521 23.8293 6.37521C26.68 6.37521 28.9989 8.51931 28.9989 11.155V25.5002H18.6594V11.155ZM20.3818 31.8758H27.2759V65.5759C24.6065 70.0069 22.3018 74.7182 20.3818 79.6522V31.8758ZM140.582 146.625H24.6459C21.7987 137.337 20.3569 127.531 20.3569 117.441C20.3569 116.681 20.3669 115.925 20.3831 115.171C20.3831 115.169 20.3834 115.169 20.3834 115.168C20.3885 114.927 20.3979 114.687 20.4044 114.446C20.4131 114.145 20.4199 113.842 20.4312 113.542C20.4425 113.232 20.4587 112.924 20.4729 112.615C20.4878 112.299 20.5023 111.981 20.5201 111.665C20.5353 111.388 20.5524 111.111 20.5702 110.835C20.595 110.451 20.6212 110.068 20.65 109.686C20.6655 109.477 20.6803 109.269 20.6971 109.061C21.6733 97.0736 24.717 85.8651 29.3631 76.0382C29.3715 76.0205 29.3795 76.0029 29.3876 75.9853C29.6187 75.4979 29.8542 75.0153 30.0933 74.5345C30.2959 74.1286 30.5021 73.7243 30.7109 73.3221C30.7328 73.2785 30.7551 73.2351 30.7774 73.1915C31.7 71.4195 32.6804 69.6857 33.7202 67.9946C33.7387 67.9647 33.7516 67.9324 33.7687 67.902C45.1806 49.3677 62.8346 37.454 82.6145 37.454C116.943 37.454 144.871 73.3353 144.871 117.44C144.871 127.531 143.429 137.337 140.582 146.625Z" fill="#211951"/>
<path d="M103.295 69.7263H61.9332C60.0293 69.7263 58.4863 71.1541 58.4863 72.9139V98.4142C58.4863 100.175 60.0296 101.602 61.9332 101.602H103.295C105.198 101.602 106.741 100.175 106.741 98.4142V72.9142C106.741 71.1541 105.198 69.7263 103.295 69.7263ZM99.8476 95.2269H65.3801V76.1018H99.8476V95.2269Z" fill="#211951"/>
<path d="M61.9332 120.727H93.3102C95.2138 120.727 96.7571 119.3 96.7571 117.539C96.7571 115.779 95.2135 114.352 93.3102 114.352H61.9332C60.0293 114.352 58.4863 115.779 58.4863 117.539C58.486 119.3 60.0293 120.727 61.9332 120.727Z" fill="#211951"/>
<path d="M103.295 114.352H103.213C101.309 114.352 99.7656 115.78 99.7656 117.54C99.7656 119.3 101.309 120.727 103.213 120.727H103.295C105.199 120.727 106.742 119.3 106.742 117.54C106.742 115.78 105.199 114.352 103.295 114.352Z" fill="#211951"/>
<path d="M103.295 127.101H61.9332C60.0293 127.101 58.4863 128.529 58.4863 130.288C58.4863 132.049 60.0296 133.476 61.9332 133.476H103.295C105.199 133.476 106.742 132.049 106.742 130.288C106.742 128.528 105.199 127.101 103.295 127.101Z" fill="#211951"/>
<path d="M82.6139 18.9251C84.5178 18.9251 86.0608 17.4982 86.0608 15.7375V3.18761C86.0608 1.4275 84.5175 0 82.6139 0C80.71 0 79.167 1.4275 79.167 3.18761V15.7372C79.167 17.4982 80.7103 18.9251 82.6139 18.9251Z" fill="#211951"/>
<path d="M110.214 22.2858C110.513 22.3596 110.813 22.3954 111.108 22.3954C112.63 22.3954 114.023 21.4559 114.435 20.032L117.948 7.90881C118.44 6.20848 117.349 4.46092 115.511 4.00521C113.673 3.548 111.782 4.55864 111.289 6.25898L107.777 18.3822C107.284 20.0825 108.375 21.83 110.214 22.2858Z" fill="#211951"/>
<path d="M135.932 32.1372C136.475 32.4274 137.067 32.5652 137.652 32.5652C138.843 32.5652 140.002 31.9935 140.641 30.9706L147.426 20.1019C148.378 18.5773 147.813 16.6274 146.164 15.7474C144.516 14.867 142.408 15.3894 141.456 16.914L134.67 27.7827C133.719 29.3073 134.283 31.2575 135.932 32.1372Z" fill="#211951"/>
</svg>
