<svg width="200" height="200" viewBox="0 0 200 200" fill="none" xmlns="http://www.w3.org/2000/svg">
<g clip-path="url(#clip0_4_132)">
<path d="M155.722 135.555C151.74 139.536 145.285 139.537 141.304 135.555L64.4544 58.7059C60.4724 54.7242 60.4724 48.2688 64.4536 44.2871L74.0192 34.7219C78.0013 30.7399 84.456 30.7406 88.438 34.7223L165.287 111.572C169.269 115.554 169.269 122.008 165.287 125.99L155.722 135.555Z" fill="#F0F3FF"/>
<path d="M134.149 128.401L103.488 97.7399C121.516 116.418 121.317 146.173 102.886 164.604C84.2509 183.238 54.0392 183.238 35.404 164.604C16.7692 145.969 16.7692 115.757 35.404 97.1223C53.8349 78.6918 83.5896 78.4922 102.268 96.52L71.6067 65.8582C54.1466 65.2016 36.4731 71.5324 23.1442 84.8617C-2.26162 110.268 -2.26162 151.458 23.1442 176.863C48.5497 202.269 89.7403 202.269 115.145 176.863C128.475 163.535 134.806 145.861 134.149 128.401Z" fill="#836FFF"/>
<path d="M129.319 47.5535C122.192 54.6805 112.049 53.2344 103.829 50.1141L149.894 96.1785C146.773 87.9582 145.327 77.816 152.454 70.6895C161.451 61.6926 171 64.2629 182.033 58.2656C183.977 57.2094 185.711 55.7262 187.35 54.0867C198.79 42.6465 198.783 24.1039 187.344 12.6633C175.904 1.22503 157.361 1.21721 145.921 12.6574C144.281 14.2969 142.798 16.0309 141.742 17.9739C135.745 29.0078 138.315 38.5571 129.319 47.5535Z" fill="#15F5BA"/>
<path d="M109.852 73.9973C108.264 72.3985 105.679 72.391 104.08 73.9801C102.481 75.5696 102.474 78.1535 104.063 79.7524L104.13 79.8199C104.928 80.6223 105.976 81.0238 107.025 81.0238C108.065 81.0238 109.106 80.6285 109.902 79.8367C111.501 78.2473 111.509 75.6633 109.92 74.0645L109.852 73.9973Z" fill="#211951"/>
<path d="M190.23 9.77773C183.924 3.47227 175.542 0 166.626 0C157.715 0 149.337 3.4707 143.035 9.77227C140.824 11.9836 139.273 13.9711 138.156 16.0258C135.421 21.0578 134.299 25.8086 133.308 30.0008C131.962 35.7008 130.898 40.2027 126.433 44.6676C123.782 47.3184 120.449 48.6063 116.243 48.6063C113.217 48.6063 109.796 47.9203 106.072 46.5844L91.3232 31.8359C88.6264 29.1391 85.0408 27.6539 81.2271 27.6539C77.4143 27.6539 73.8287 29.1387 71.1326 31.8355L61.567 41.4008C56.0006 46.9676 56.001 56.0258 61.5678 61.5918L62.065 62.0891C46.2717 63.6844 31.6311 70.6039 20.2584 81.9766C7.2002 95.0348 0.00878906 112.396 0.00878906 130.863C0.00878906 149.33 7.2002 166.692 20.258 179.75C33.3166 192.809 50.6783 200 69.1455 200C87.6123 200 104.974 192.809 118.032 179.75C129.294 168.489 136.274 153.628 137.904 137.928L138.418 138.442C141.114 141.139 144.699 142.624 148.512 142.624C152.326 142.624 155.912 141.139 158.608 138.442L168.174 128.877C173.74 123.311 173.74 114.253 168.174 108.686L153.416 93.9293C150.183 84.9359 150.828 78.0902 155.342 73.577C159.807 69.1121 164.309 68.048 170.009 66.7016C174.201 65.7109 178.952 64.5887 183.984 61.8535C186.039 60.7359 188.026 59.1859 190.237 56.9746C203.246 43.9645 203.243 22.7926 190.23 9.77773ZM112.26 173.978C100.744 185.495 85.4318 191.837 69.1455 191.837C52.8588 191.837 37.5471 185.494 26.0307 173.978C14.5139 162.462 8.17207 147.15 8.17207 130.864C8.17207 114.577 14.5143 99.2648 26.0307 87.7484C37.5439 76.2352 52.8557 69.8941 69.1439 69.8941C69.3869 69.8941 69.6299 69.8953 69.874 69.8984L80.2283 80.2527C76.6232 79.4688 72.91 79.066 69.1412 79.066C55.3064 79.066 42.3006 84.4539 32.517 94.2363C12.3213 114.432 12.3213 147.294 32.517 167.491C42.301 177.274 55.3088 182.662 69.1439 182.662C82.9795 182.662 95.9877 177.274 105.771 167.491C115.438 157.823 120.826 144.97 120.939 131.299C120.972 127.382 120.571 123.525 119.758 119.784L130.107 130.134C130.297 146.494 123.843 162.395 112.26 173.978ZM99.4221 99.4461L100.56 100.583C116.96 117.585 116.71 145.008 99.9998 161.718C91.7584 169.96 80.8006 174.498 69.1451 174.498C57.49 174.498 46.5326 169.96 38.2904 161.718C21.2771 144.705 21.2771 117.022 38.2904 100.009C46.5311 91.768 57.4881 87.2293 69.142 87.2293C80.5006 87.2293 91.2533 91.568 99.4221 99.4461ZM162.401 114.457C164.785 116.841 164.785 120.72 162.401 123.104L152.836 132.669C151.681 133.823 150.146 134.46 148.512 134.46C146.879 134.46 145.344 133.824 144.19 132.669L67.3397 55.8191C64.9557 53.4355 64.9557 49.5566 67.3393 47.1727L69.4115 45.1004L94.735 70.4238C95.5322 71.2211 96.5768 71.6195 97.6209 71.6195C98.6654 71.6195 99.71 71.2207 100.507 70.4238C102.101 68.8301 102.101 66.2453 100.507 64.6512L75.1834 39.3277L76.9041 37.607C78.0588 36.4523 79.5939 35.8164 81.2264 35.8164C82.86 35.8164 84.3955 36.4527 85.5506 37.6074L147.009 99.0656L162.401 114.457ZM184.463 51.2016C182.824 52.843 181.431 53.9477 180.085 54.6801C176.012 56.8934 172.184 57.7984 168.131 58.7555C162.006 60.2023 155.673 61.6992 149.569 67.8031C145.356 72.0148 143.236 77.4102 143.236 83.7477L116.257 56.7691C122.642 56.766 128.008 54.6359 132.204 50.4395C138.308 44.3355 139.804 38.002 141.252 31.877C142.209 27.8242 143.114 23.9961 145.327 19.9234C146.059 18.577 147.164 17.1855 148.806 15.5437C153.567 10.784 159.895 8.16289 166.626 8.16289C173.36 8.16289 179.693 10.7863 184.458 15.5496C194.288 25.3816 194.29 41.3746 184.463 51.2016Z" fill="#211951"/>
<path d="M71.0003 138.667V144M57.667 126.743C58.9241 126.667 60.4739 126.667 62.467 126.667H79.5337C81.5267 126.667 83.0766 126.667 84.3337 126.743M57.667 126.743C56.0981 126.839 54.9851 127.055 54.0351 127.539C52.5298 128.306 51.3059 129.529 50.5389 131.035C49.667 132.746 49.667 134.986 49.667 139.467V143.2C49.667 147.681 49.667 149.921 50.5389 151.632C51.3059 153.137 52.5298 154.361 54.0351 155.128C55.7464 156 57.9866 156 62.467 156H79.5337C84.0142 156 86.2542 156 87.9657 155.128C89.471 154.361 90.6947 153.137 91.4617 151.632C92.3337 149.921 92.3337 147.681 92.3337 143.2V139.467C92.3337 134.986 92.3337 132.746 91.4617 131.035C90.6947 129.529 89.471 128.306 87.9657 127.539C87.0155 127.055 85.9025 126.839 84.3337 126.743M57.667 126.743V121.333C57.667 113.97 63.6365 108 71.0003 108C78.3641 108 84.3337 113.97 84.3337 121.333V126.743" stroke="#211951" stroke-width="5.33333" stroke-linecap="round" stroke-linejoin="round"/>
</g>
<defs>
<clipPath id="clip0_4_132">
<rect width="200" height="200" fill="white"/>
</clipPath>
</defs>
</svg>
