<svg width="120" height="120" viewBox="0 0 120 120" fill="none" xmlns="http://www.w3.org/2000/svg">
<g clip-path="url(#clip0_4_328)">
<mask id="mask0_4_328" style="mask-type:luminance" maskUnits="userSpaceOnUse" x="0" y="0" width="120" height="120">
<path d="M120 0H0V120H120V0Z" fill="white"/>
</mask>
<g mask="url(#mask0_4_328)">
<path d="M116.25 7.5V112.5C116.25 114.562 114.562 116.25 112.5 116.25H7.5C5.4375 116.25 3.75 114.562 3.75 112.5V7.5C3.75 5.4375 5.4375 3.75 7.5 3.75H112.5C114.562 3.75 116.25 5.4375 116.25 7.5ZM63.75 37.5C63.75 31.275 58.725 26.25 52.5 26.25C46.275 26.25 41.25 31.275 41.25 37.5C41.25 43.725 46.275 48.75 52.5 48.75C58.725 48.75 63.75 43.725 63.75 37.5ZM86.25 82.5C86.25 76.275 81.225 71.25 75 71.25C68.775 71.25 63.75 76.275 63.75 82.5C63.75 88.725 68.775 93.75 75 93.75C81.225 93.75 86.25 88.725 86.25 82.5Z" fill="#F0F3FF"/>
<path d="M75 71.25C81.225 71.25 86.25 76.275 86.25 82.5C86.25 88.725 81.225 93.75 75 93.75C68.775 93.75 63.75 88.725 63.75 82.5C63.75 76.275 68.775 71.25 75 71.25Z" fill="#15F5BA"/>
<path d="M52.5 26.25C58.725 26.25 63.75 31.275 63.75 37.5C63.75 43.725 58.725 48.75 52.5 48.75C46.275 48.75 41.25 43.725 41.25 37.5C41.25 31.275 46.275 26.25 52.5 26.25Z" fill="#836FFF"/>
<path d="M86.25 82.5C86.25 76.2863 81.2137 71.25 75 71.25C68.7863 71.25 63.75 76.2863 63.75 82.5C63.75 88.7137 68.7863 93.75 75 93.75C81.2137 93.75 86.25 88.7137 86.25 82.5ZM86.25 82.5H93.75M52.5 82.5H26.25M63.75 37.5C63.75 43.7137 58.7137 48.75 52.5 48.75C46.2863 48.75 41.25 43.7137 41.25 37.5C41.25 31.2863 46.2863 26.25 52.5 26.25C58.7137 26.25 63.75 31.2863 63.75 37.5ZM63.75 37.5H93.75M26.25 37.5H30M116.25 112.5C116.25 114.574 114.574 116.25 112.5 116.25H7.5C5.42625 116.25 3.75 114.574 3.75 112.5V7.5C3.75 5.42625 5.42625 3.75 7.5 3.75H112.5C114.574 3.75 116.25 5.42625 116.25 7.5V112.5Z" stroke="#211951" stroke-width="7.5" stroke-linecap="round" stroke-linejoin="round"/>
</g>
</g>
<defs>
<clipPath id="clip0_4_328">
<rect width="120" height="120" fill="white"/>
</clipPath>
</defs>
</svg>
