<svg width="200" height="200" viewBox="0 0 200 200" fill="none" xmlns="http://www.w3.org/2000/svg">
<path d="M138.095 72.6707V196.895H61.9043V72.6707C61.9043 58.948 73.0266 47.8262 86.7488 47.8262H99.9996H113.25C126.973 47.8262 138.095 58.9484 138.095 72.6707Z" fill="#836FFF"/>
<path d="M70.1865 188.613V72.6707C70.1865 63.5379 77.6166 56.1074 86.7498 56.1074H113.251C122.384 56.1074 129.814 63.5375 129.814 72.6707V188.613H70.1865Z" fill="#F0F3FF"/>
<path d="M106.625 148.451C113.412 151.106 118.219 157.702 118.219 165.424C118.219 175.507 110.025 183.681 99.9336 183.644C90.1902 183.611 82.0949 175.752 81.7887 166.012C81.5359 158.037 86.418 151.172 93.3746 148.451V66.874C93.3746 64.5885 95.2297 62.7334 97.5152 62.7334H102.484C104.77 62.7334 106.625 64.5885 106.625 66.874V148.451H106.625Z" fill="#F0F3FF"/>
<path d="M106.625 148.451V94.0391H93.3746V148.452C86.418 151.172 81.5359 158.037 81.7887 166.012C82.0949 175.752 90.1902 183.611 99.9336 183.644C110.025 183.681 118.219 175.507 118.219 165.425C118.219 157.702 113.412 151.105 106.625 148.451Z" fill="#15F5BA"/>
<path d="M108.282 165.425C108.282 160.849 104.576 157.143 100 157.143C95.425 157.143 91.7188 160.849 91.7188 165.425C91.7188 170 95.4246 173.706 100 173.706C104.576 173.706 108.282 170 108.282 165.425Z" fill="#F0F3FF"/>
<path d="M113.25 44.7203H103.105V29.6066C103.105 27.8914 101.715 26.5012 100 26.5012C94.4063 26.5012 89.8551 21.95 89.8551 16.3563C89.8551 10.7625 94.4063 6.21133 100 6.21133C105.594 6.21133 110.145 10.7625 110.145 16.3563C110.145 18.0715 111.536 19.4617 113.25 19.4617C114.965 19.4617 116.356 18.0711 116.356 16.3563C116.356 7.3375 109.019 0 100 0C90.9813 0 83.6438 7.3375 83.6438 16.3563C83.6438 24.3137 89.3551 30.9621 96.8941 32.4168V44.7207H86.7492C71.3371 44.7207 58.7988 57.259 58.7988 72.6711V196.895C58.7988 198.61 60.1895 200 61.9043 200H103.313C105.028 200 106.418 198.609 106.418 196.895C106.418 195.179 105.027 193.789 103.313 193.789H65.0102V72.6707C65.0102 60.6836 74.7621 50.9316 86.7492 50.9316H113.25C125.238 50.9316 134.989 60.6836 134.989 72.6707V193.789H119.875C118.16 193.789 116.77 195.179 116.77 196.894C116.77 198.609 118.161 200 119.875 200H138.095C139.81 200 141.2 198.609 141.2 196.894V72.6707C141.201 57.259 128.663 44.7203 113.25 44.7203Z" fill="#211951"/>
<path d="M78.6846 166.11C79.0412 177.452 88.5686 186.711 99.9217 186.75C99.949 186.75 99.9756 186.75 100.003 186.75C105.683 186.75 111.024 184.543 115.05 180.532C119.096 176.5 121.325 171.135 121.325 165.424C121.325 157.308 116.84 150.073 109.731 146.446V66.8739C109.731 62.8786 106.48 59.6274 102.484 59.6274H97.5154C93.5201 59.6274 90.2689 62.8782 90.2689 66.8739V76.1907H80.124C78.4088 76.1907 77.0186 77.5814 77.0186 79.2962C77.0186 81.0114 78.4092 82.4017 80.124 82.4017H90.2689V89.4411H80.124C78.4088 89.4411 77.0186 90.8317 77.0186 92.5466C77.0186 94.2618 78.4092 95.6521 80.124 95.6521H90.2689V102.692H80.124C78.4088 102.692 77.0186 104.082 77.0186 105.797C77.0186 107.512 78.4092 108.902 80.124 108.902H90.2689V115.942H80.124C78.4088 115.942 77.0186 117.333 77.0186 119.047C77.0186 120.762 78.4092 122.153 80.124 122.153H90.2689V129.192H80.124C78.4088 129.192 77.0186 130.583 77.0186 132.298C77.0186 134.013 78.4092 135.403 80.124 135.403H90.2689V146.449C83.0057 150.181 78.4225 157.829 78.6846 166.11ZM96.4803 66.8739C96.4803 66.3032 96.9447 65.8388 97.5154 65.8388H102.485C103.055 65.8388 103.52 66.3032 103.52 66.8739V148.452C103.52 149.73 104.304 150.878 105.494 151.344C111.338 153.629 115.114 159.156 115.114 165.425C115.114 169.472 113.535 173.274 110.666 176.132C107.813 178.975 104.028 180.539 100.002 180.539C99.9826 180.539 99.9631 180.539 99.9443 180.539C91.8975 180.511 85.1455 173.951 84.8932 165.915C84.6912 159.527 88.5541 153.672 94.5064 151.344C95.6971 150.878 96.4807 149.73 96.4807 148.452L96.4803 66.8739Z" fill="#211951"/>
<path d="M88.6133 165.425C88.6133 171.704 93.7215 176.812 100 176.812C106.279 176.812 111.388 171.704 111.388 165.425C111.388 159.146 106.279 154.038 100 154.038C93.7215 154.038 88.6133 159.145 88.6133 165.425ZM100 160.249C102.855 160.249 105.177 162.57 105.177 165.425C105.177 168.279 102.855 170.601 100 170.601C97.1461 170.601 94.8242 168.279 94.8242 165.425C94.8242 162.57 97.1461 160.249 100 160.249Z" fill="#211951"/>
</svg>
