<svg width="150" height="117" viewBox="0 0 150 117" fill="none" xmlns="http://www.w3.org/2000/svg">
<path d="M40.5088 31.9971H6.27217C2.8084 31.9971 0 34.8055 0 38.2695V78.2981C0 81.7625 2.8084 84.5703 6.27217 84.5703H40.5082V31.9971H40.5088Z" fill="#F0F3FF"/>
<path d="M24.4508 31.9958H16.0566V84.5688H24.4508V31.9958Z" fill="#836FFF"/>
<path d="M86.1615 0.620375L40.5088 31.9973V84.5706L86.1615 115.948C88.4786 117.54 91.6318 115.881 91.6318 113.07V3.49821C91.6315 0.686586 88.4786 -0.972496 86.1615 0.620375Z" fill="#F0F3FF"/>
<path d="M123.964 111.276C123.269 111.276 122.58 110.981 122.098 110.408C121.233 109.378 121.366 107.842 122.396 106.977C136.844 94.8339 145.13 77.0861 145.13 58.2852C145.13 39.4839 136.844 21.7361 122.396 9.59345C121.366 8.72802 121.233 7.19199 122.098 6.1622C122.964 5.13213 124.5 4.99912 125.529 5.86484C141.081 18.9356 150 38.0422 150 58.2854C150 78.5284 141.081 97.635 125.529 110.705C125.073 111.089 124.517 111.276 123.964 111.276Z" fill="#15F5BA"/>
<path d="M113.179 98.4231C112.484 98.4231 111.795 98.1281 111.313 97.5545C110.448 96.525 110.581 94.9889 111.611 94.1235C122.245 85.1856 128.344 72.1227 128.344 58.2852C128.344 44.4477 122.245 31.3848 111.611 22.4467C110.581 21.5812 110.448 20.0452 111.313 19.0157C112.179 17.9853 113.715 17.8529 114.744 18.7183C126.483 28.5843 133.215 43.0057 133.215 58.2855C133.215 73.5653 126.483 87.9864 114.744 97.8524C114.288 98.2359 113.731 98.4231 113.179 98.4231Z" fill="#15F5BA"/>
<path d="M102.403 85.5814C101.708 85.5814 101.018 85.2858 100.536 84.7125C99.6712 83.6824 99.8051 82.1463 100.835 81.2812C107.649 75.5572 111.558 67.1756 111.558 58.2852C111.558 49.3948 107.649 41.0129 100.835 35.2889C99.8054 34.4238 99.6715 32.8878 100.536 31.8577C101.402 30.8285 102.938 30.6946 103.968 31.5591C111.887 38.211 116.428 47.9522 116.428 58.2852C116.428 68.6179 111.887 78.3588 103.968 85.011C103.511 85.3945 102.956 85.5814 102.403 85.5814Z" fill="#15F5BA"/>
<path opacity="0.2" d="M90.1863 111.923L45.9431 81.5141C45.0252 80.8834 43.9374 80.5456 42.8232 80.5456H10.2973C6.83291 80.5456 4.0251 77.7372 4.0251 74.2734V34.2448C4.0251 33.5677 4.13555 32.917 4.33389 32.3059C1.81904 33.1233 0 35.4826 0 38.2696V78.2982C0 81.7626 2.8084 84.5704 6.27217 84.5704H40.5082L86.1609 115.947C88.478 117.54 91.6312 115.881 91.6312 113.069V112.501C91.1376 112.424 90.6457 112.238 90.1863 111.923Z" fill="black"/>
</svg>
