<svg width="250" height="250" viewBox="0 0 250 250" fill="none" xmlns="http://www.w3.org/2000/svg">
<path d="M201.458 82.5C201.458 124.792 176.041 244.375 124.791 244.375C73.5413 244.375 48.333 124.792 48.333 82.5C48.333 40.2083 82.4997 5.83333 124.791 5.83333C167.083 5.83333 201.458 40 201.458 82.5Z" fill="#836FFF"/>
<path d="M125 248.333C94.5837 248.333 74.792 211.458 63.542 180.417C50.8337 145.417 44.167 104.583 44.167 82.2917C44.167 37.7083 80.417 1.45833 125 1.45833C169.584 1.45833 205.834 37.7083 205.834 82.2917C205.834 117.917 188.75 201.25 156.042 233.75C146.25 243.542 135.834 248.333 125 248.333ZM124.792 10C84.792 10 52.292 42.5 52.292 82.5C52.292 122.917 77.292 240 124.792 240.208C133.542 240.208 141.875 236.25 149.792 228.125C167.292 210.833 178.542 179.375 185.209 156.25C193.542 126.667 197.084 97.9167 197.084 82.5C197.292 42.5 164.792 10 124.792 10Z" fill="#211951"/>
<path d="M201.458 82.5C201.458 124.792 176.041 244.375 124.791 244.375C73.5413 244.375 48.333 124.792 48.333 82.5C48.333 104.792 80.6247 137.292 122.916 137.292C165.208 137.292 191.25 109.167 201.458 82.5Z" fill="#15F5BA"/>
<path d="M125 248.333C94.5837 248.333 74.792 211.458 63.542 180.417C50.8337 145.417 44.167 104.583 44.167 82.2917C44.167 80 46.042 78.125 48.3337 78.125C50.6253 78.125 52.5003 80 52.5003 82.2917C52.5003 102.292 82.7087 132.917 122.917 132.917C163.125 132.917 187.917 106.042 197.709 80.8333C198.334 78.9583 200.417 77.9167 202.292 78.3333C204.167 78.75 205.625 80.4167 205.625 82.5C205.625 118.125 188.542 201.458 155.834 233.958C146.25 243.542 135.834 248.333 125 248.333ZM54.5837 108.542C61.4587 158.958 85.417 240 125 240C133.75 240 142.084 236.042 150 227.917C167.5 210.625 178.75 179.167 185.417 156.042C190.834 136.458 194.375 117.083 196.042 101.875C182.084 123.125 157.709 141.458 122.917 141.458C92.5003 141.458 67.7087 125.833 54.5837 108.542Z" fill="#211951"/>
<path d="M199.375 83.9583C197.292 130.417 171.875 240.208 122.917 240C123.542 240.208 152.709 208.958 165.209 171.458C178.125 132.917 187.709 108.542 197.292 83.75C197.917 82.0833 199.375 81.875 199.375 83.9583Z" fill="#836FFF"/>
<path d="M175.834 88.5417C175.834 116.667 152.917 139.583 124.792 139.583C96.667 139.583 73.542 116.667 73.542 88.5417C73.542 73.3333 80.2087 59.7917 90.6253 50.4167C99.5837 42.2917 111.667 37.5 124.584 37.5C152.917 37.5 175.834 60.2083 175.834 88.5417Z" fill="#F0F3FF"/>
<path d="M124.791 143.75C94.3747 143.75 69.583 118.958 69.583 88.5417C69.583 72.9167 76.2497 57.9167 87.9163 47.2917C97.9163 38.3333 111.041 33.3333 124.791 33.3333C155.208 33.3333 180 58.125 180 88.5417C180 118.958 155.208 143.75 124.791 143.75ZM124.791 41.6667C113.333 41.6667 102.083 45.8333 93.5413 53.5417C83.5413 62.5 77.9163 75.2083 77.9163 88.5417C77.708 114.375 98.7497 135.417 124.791 135.417C150.833 135.417 171.666 114.375 171.666 88.5417C171.666 62.7083 150.625 41.6667 124.791 41.6667Z" fill="#211951"/>
<path d="M51.2497 115.625C103.125 140 141.041 181.875 158.333 223.958C158.333 223.958 168.75 213.333 175.208 196.458C175.208 196.458 142.083 121.458 48.333 85.625C48.333 85.625 51.2497 103.958 51.2497 115.625Z" fill="#F0F3FF"/>
<path d="M158.333 228.125H157.5C156.042 227.917 155 226.875 154.375 225.625C136.458 181.458 97.2915 141.875 49.3749 119.375C47.9165 118.75 47.0832 117.292 46.8749 115.625C46.6665 104.583 43.9582 86.4583 43.7499 86.25C43.5415 84.7917 44.1665 83.3333 45.2082 82.2917C46.4582 81.4583 47.9165 81.0417 49.3749 81.6667C143.542 117.708 177.292 191.667 178.542 194.792C178.958 195.833 178.958 196.875 178.542 197.917C171.875 215.417 161.25 226.458 160.833 226.875C160.417 227.708 159.375 228.125 158.333 228.125ZM55.4165 112.917C101.667 135.208 140 173.333 159.375 216.042C162.5 211.875 167.083 205.208 170.417 196.667C165.208 186.25 131.875 125 53.1249 92.0833C54.1665 97.9167 55.2082 106.042 55.4165 112.917Z" fill="#211951"/>
<path d="M201.667 85.625C107.917 121.458 74.792 196.458 74.792 196.458C81.2503 213.333 91.667 223.958 91.667 223.958C108.75 181.875 146.667 140 198.75 115.625C198.75 103.958 201.667 85.625 201.667 85.625Z" fill="#F0F3FF"/>
<path d="M91.667 228.125C90.6253 228.125 89.5837 227.708 88.7503 226.875C88.3337 226.458 77.7087 215.417 71.042 197.917C70.6253 196.875 70.6253 195.833 71.042 194.792C72.5003 191.667 106.042 117.917 200.209 81.6667C201.667 81.0417 203.125 81.4583 204.375 82.2917C205.625 83.125 206.042 84.7917 205.834 86.25C205.834 86.4583 202.917 104.583 202.709 115.625C202.709 117.292 201.667 118.75 200.209 119.375C152.5 141.875 113.334 181.458 95.2087 225.625C94.5837 226.875 93.542 227.917 92.0837 228.125H91.667ZM79.3753 196.667C82.917 205.208 87.292 211.875 90.417 216.042C109.792 173.333 148.125 135.208 194.375 112.917C194.584 106.042 195.625 97.9167 196.459 92.0833C117.917 125 84.5837 186.25 79.3753 196.667Z" fill="#211951"/>
<path d="M92.083 49.7917C92.083 49.7917 106.041 63.125 105.208 73.9583C107.916 73.9583 111.875 66.875 111.875 51.875C111.875 35.4167 127.916 61.6667 128.75 69.1667C132.916 66.25 141.666 55 142.083 51.0417C146.25 56.875 152.083 63.9583 151.666 72.9167C156.458 71.6667 161.25 65 159.166 51.0417C141.875 29.7917 100.416 39.7917 92.083 49.7917Z" fill="#211951"/>
<path d="M105.209 78.125C103.959 78.125 102.917 77.7083 102.084 76.875C101.25 76.0417 100.834 74.7917 101.042 73.75C101.667 66.4583 92.7087 56.25 89.167 52.9167C87.5003 51.4583 87.5003 48.9583 88.9587 47.2917C95.2087 40 112.5 34.375 128.542 34.5833C138.959 34.5833 153.125 37.0833 162.292 48.5417C162.709 49.1667 163.125 49.7917 163.125 50.625C165.625 67.5 158.959 75.4167 152.5 77.2917C151.25 77.7083 149.792 77.2917 148.75 76.4583C147.709 75.625 147.084 74.375 147.292 72.9167C147.709 68.125 145.417 63.75 142.709 59.5833C139.167 65 133.959 71.0417 131.042 72.9167C129.792 73.75 128.334 73.9583 127.084 73.3333C125.834 72.7083 124.792 71.4583 124.584 70C124.167 66.4583 119.375 57.9167 115.834 53.5417C115.625 68.5417 111.459 78.125 105.209 78.125ZM141.875 46.6667C143.125 46.6667 144.584 47.2917 145.417 48.5417C145.834 49.375 146.459 50 147.084 50.8333C149.792 54.5833 152.709 58.75 154.375 63.75C155.209 61.0417 155.625 57.5 155 52.5C147.917 44.375 136.667 42.7083 128.334 42.5C124.584 42.5 120.834 42.7083 117.292 43.3333C122.5 46.25 127.5 55 130.417 61.4583C133.75 57.5 137.5 52.0833 137.709 50.4167C137.917 48.75 139.167 47.2917 140.834 46.6667C141.25 46.875 141.459 46.6667 141.875 46.6667ZM98.1253 50C100.625 52.9167 104.375 57.5 106.667 62.5C107.084 59.7917 107.5 56.25 107.5 51.6667C107.5 48.75 108.125 46.6667 108.75 45.2083C104.375 46.6667 100.625 48.3333 98.1253 50Z" fill="#211951"/>
<path d="M100.833 92.5C100.833 93.6603 101.294 94.7731 102.114 95.5936C102.935 96.4141 104.048 96.875 105.208 96.875C106.368 96.875 107.481 96.4141 108.302 95.5936C109.122 94.7731 109.583 93.6603 109.583 92.5C109.583 91.3397 109.122 90.2269 108.302 89.4064C107.481 88.5859 106.368 88.125 105.208 88.125C104.048 88.125 102.935 88.5859 102.114 89.4064C101.294 90.2269 100.833 91.3397 100.833 92.5Z" fill="#211951"/>
<path d="M105.209 101.042C100.417 101.042 96.667 97.2917 96.667 92.5C96.667 87.7083 100.417 83.9583 105.209 83.9583C110 83.9583 113.75 87.7083 113.75 92.5C113.75 97.2917 110 101.042 105.209 101.042ZM105.209 92.2917C105 92.2917 105 92.5 105 92.5C105 92.7083 105.417 92.7083 105.417 92.5C105.417 92.2917 105.417 92.2917 105.209 92.2917Z" fill="#211951"/>
<path d="M140.208 92.5C140.208 93.6603 140.669 94.7731 141.489 95.5936C142.31 96.4141 143.423 96.875 144.583 96.875C145.743 96.875 146.856 96.4141 147.677 95.5936C148.497 94.7731 148.958 93.6603 148.958 92.5C148.958 91.3397 148.497 90.2269 147.677 89.4064C146.856 88.5859 145.743 88.125 144.583 88.125C143.423 88.125 142.31 88.5859 141.489 89.4064C140.669 90.2269 140.208 91.3397 140.208 92.5Z" fill="#211951"/>
<path d="M144.584 101.042C139.792 101.042 136.042 97.2917 136.042 92.5C136.042 87.7083 139.792 83.9583 144.584 83.9583C149.375 83.9583 153.125 87.7083 153.125 92.5C153.125 97.2917 149.375 101.042 144.584 101.042ZM144.584 92.2917C144.375 92.2917 144.375 92.5 144.375 92.5L144.584 92.2917Z" fill="#211951"/>
</svg>
